<svg width="64" height="64" viewBox="0 0 260 180" fill="none" xmlns="http://www.w3.org/2000/svg">
  <title>Roofen Favicon</title>

  <defs>
    <linearGradient id="roofOrange" x1="32" y1="88" x2="228" y2="88" gradientUnits="userSpaceOnUse">
      <stop offset="0%" stop-color="#FFB15E"/>
      <stop offset="45%" stop-color="#F47A18"/>
      <stop offset="100%" stop-color="#B95623"/>
    </linearGradient>

    <linearGradient id="roofOrangeSide" x1="178" y1="48" x2="218" y2="126" gradientUnits="userSpaceOnUse">
      <stop offset="0%" stop-color="#FF9F43"/>
      <stop offset="100%" stop-color="#B95623"/>
    </linearGradient>

    <linearGradient id="roofWhite" x1="74" y1="122" x2="186" y2="122" gradientUnits="userSpaceOnUse">
      <stop offset="0%" stop-color="#FFFFFF"/>
      <stop offset="100%" stop-color="#DDE5EF"/>
    </linearGradient>

    <filter id="logoShadow" x="12" y="24" width="236" height="136" filterUnits="userSpaceOnUse">
      <feDropShadow dx="0" dy="8" stdDeviation="6" flood-color="#000000" flood-opacity="0.22"/>
    </filter>
  </defs>

  <rect width="260" height="180" rx="36" fill="#101722"/>

  <g filter="url(#logoShadow)">
    <rect x="184" y="54" width="30" height="62" rx="5" fill="url(#roofOrangeSide)"/>
    <rect x="178" y="44" width="42" height="16" rx="6" fill="url(#roofOrange)"/>
    <rect x="202" y="58" width="6" height="52" rx="3" fill="#A94716" opacity="0.35"/>

    <path
      d="M36 130L130 42L224 130"
      stroke="url(#roofOrange)"
      stroke-width="24"
      stroke-linecap="round"
      stroke-linejoin="round"
    />

    <path
      d="M48 124L124 53"
      stroke="#FFC07A"
      stroke-width="4"
      stroke-linecap="round"
      opacity="0.75"
    />

    <path
      d="M58 132L130 65L202 132"
      stroke="#101722"
      stroke-width="26"
      stroke-linecap="round"
      stroke-linejoin="round"
    />

    <path
      d="M76 140L130 88L184 140H156L130 115L104 140H76Z"
      fill="url(#roofWhite)"
    />

    <path
      d="M108 135L130 114L152 135H108Z"
      fill="#101722"
    />

    <rect x="72" y="139" width="116" height="10" rx="5" fill="#F8FAFC"/>
  </g>
</svg>